<svg width="264" height="93" viewBox="0 0 264 93" fill="none" xmlns="http://www.w3.org/2000/svg">
<path d="M13.5172 23.5078H7.91562V36H0.884369V1.875H13.5641C17.5953 1.875 20.7047 2.77344 22.8922 4.57031C25.0797 6.36719 26.1734 8.90625 26.1734 12.1875C26.1734 14.5156 25.6656 16.4609 24.65 18.0234C23.65 19.5703 22.1266 20.8047 20.0797 21.7266L27.4625 35.6719V36H19.9156L13.5172 23.5078ZM7.91562 17.8125H13.5875C15.3531 17.8125 16.7203 17.3672 17.6891 16.4766C18.6578 15.5703 19.1422 14.3281 19.1422 12.75C19.1422 11.1406 18.6812 9.875 17.7594 8.95312C16.8531 8.03125 15.4547 7.57031 13.5641 7.57031H7.91562V17.8125ZM43.4872 36.4688C39.7684 36.4688 36.7372 35.3281 34.3934 33.0469C32.0653 30.7656 30.9012 27.7266 30.9012 23.9297V23.2734C30.9012 20.7266 31.3934 18.4531 32.3778 16.4531C33.3622 14.4375 34.7528 12.8906 36.5497 11.8125C38.3622 10.7188 40.4247 10.1719 42.7372 10.1719C46.2059 10.1719 48.9325 11.2656 50.9169 13.4531C52.9169 15.6406 53.9169 18.7422 53.9169 22.7578V25.5234H37.7684C37.9872 27.1797 38.6434 28.5078 39.7372 29.5078C40.8466 30.5078 42.245 31.0078 43.9325 31.0078C46.5419 31.0078 48.5809 30.0625 50.0497 28.1719L53.3778 31.8984C52.3622 33.3359 50.9872 34.4609 49.2528 35.2734C47.5184 36.0703 45.5966 36.4688 43.4872 36.4688ZM42.7137 15.6562C41.37 15.6562 40.2762 16.1094 39.4325 17.0156C38.6044 17.9219 38.0731 19.2188 37.8387 20.9062H47.2606V20.3672C47.2294 18.8672 46.8231 17.7109 46.0419 16.8984C45.2606 16.0703 44.1512 15.6562 42.7137 15.6562ZM73.1994 36C72.8869 35.3906 72.6603 34.6328 72.5197 33.7266C70.8791 35.5547 68.7462 36.4688 66.1212 36.4688C63.6369 36.4688 61.5744 35.75 59.9337 34.3125C58.3087 32.875 57.4962 31.0625 57.4962 28.875C57.4962 26.1875 58.4884 24.125 60.4728 22.6875C62.4728 21.25 65.3556 20.5234 69.1212 20.5078H72.2384V19.0547C72.2384 17.8828 71.9337 16.9453 71.3244 16.2422C70.7306 15.5391 69.7853 15.1875 68.4884 15.1875C67.3478 15.1875 66.4494 15.4609 65.7931 16.0078C65.1525 16.5547 64.8322 17.3047 64.8322 18.2578H58.0587C58.0587 16.7891 58.5119 15.4297 59.4181 14.1797C60.3244 12.9297 61.6056 11.9531 63.2619 11.25C64.9181 10.5312 66.7775 10.1719 68.84 10.1719C71.965 10.1719 74.4416 10.9609 76.2697 12.5391C78.1134 14.1016 79.0353 16.3047 79.0353 19.1484V30.1406C79.0509 32.5469 79.3869 34.3672 80.0431 35.6016V36H73.1994ZM67.5978 31.2891C68.5978 31.2891 69.5197 31.0703 70.3634 30.6328C71.2072 30.1797 71.8322 29.5781 72.2384 28.8281V24.4688H69.7072C66.3166 24.4688 64.5119 25.6406 64.2931 27.9844L64.2697 28.3828C64.2697 29.2266 64.5666 29.9219 65.1603 30.4688C65.7541 31.0156 66.5666 31.2891 67.5978 31.2891ZM92.1069 36H85.31V0H92.1069V36ZM135.828 7.57031H125.375V36H118.344V7.57031H108.031V1.875H135.828V7.57031ZM147.283 36H140.486V10.6406H147.283V36ZM140.087 4.07812C140.087 3.0625 140.423 2.22656 141.095 1.57031C141.783 0.914062 142.712 0.585938 143.884 0.585938C145.04 0.585938 145.962 0.914062 146.65 1.57031C147.337 2.22656 147.681 3.0625 147.681 4.07812C147.681 5.10938 147.329 5.95312 146.626 6.60938C145.939 7.26562 145.025 7.59375 143.884 7.59375C142.743 7.59375 141.822 7.26562 141.118 6.60938C140.431 5.95312 140.087 5.10938 140.087 4.07812ZM159.956 10.6406L160.167 13.4766C161.963 11.2734 164.393 10.1719 167.456 10.1719C170.721 10.1719 172.963 11.4609 174.182 14.0391C175.963 11.4609 178.503 10.1719 181.799 10.1719C184.549 10.1719 186.596 10.9766 187.94 12.5859C189.284 14.1797 189.956 16.5859 189.956 19.8047V36H183.159V19.8281C183.159 18.3906 182.878 17.3438 182.315 16.6875C181.753 16.0156 180.76 15.6797 179.338 15.6797C177.307 15.6797 175.901 16.6484 175.12 18.5859L175.143 36H168.37V19.8516C168.37 18.3828 168.081 17.3203 167.503 16.6641C166.924 16.0078 165.94 15.6797 164.549 15.6797C162.628 15.6797 161.237 16.4766 160.378 18.0703V36H153.604V10.6406H159.956ZM207.574 36.4688C203.855 36.4688 200.824 35.3281 198.48 33.0469C196.152 30.7656 194.988 27.7266 194.988 23.9297V23.2734C194.988 20.7266 195.48 18.4531 196.465 16.4531C197.449 14.4375 198.84 12.8906 200.637 11.8125C202.449 10.7188 204.512 10.1719 206.824 10.1719C210.293 10.1719 213.019 11.2656 215.004 13.4531C217.004 15.6406 218.004 18.7422 218.004 22.7578V25.5234H201.855C202.074 27.1797 202.73 28.5078 203.824 29.5078C204.933 30.5078 206.332 31.0078 208.019 31.0078C210.629 31.0078 212.668 30.0625 214.137 28.1719L217.465 31.8984C216.449 33.3359 215.074 34.4609 213.34 35.2734C211.605 36.0703 209.683 36.4688 207.574 36.4688ZM206.801 15.6562C205.457 15.6562 204.363 16.1094 203.519 17.0156C202.691 17.9219 202.16 19.2188 201.926 20.9062H211.347V20.3672C211.316 18.8672 210.91 17.7109 210.129 16.8984C209.347 16.0703 208.238 15.6562 206.801 15.6562ZM234.327 26.8125C234.327 25.2344 234.764 23.7734 235.639 22.4297C236.53 21.0859 238.155 19.5938 240.514 17.9531C239.498 16.5938 238.702 15.3203 238.123 14.1328C237.545 12.9297 237.256 11.6797 237.256 10.3828C237.256 7.72656 238.092 5.57031 239.764 3.91406C241.452 2.24219 243.717 1.40625 246.561 1.40625C249.108 1.40625 251.194 2.16406 252.819 3.67969C254.459 5.19531 255.28 7.08594 255.28 9.35156C255.28 12.0703 253.905 14.4688 251.155 16.5469L248.53 18.4453L254.412 25.2891C255.334 23.4766 255.795 21.4766 255.795 19.2891H261.561C261.561 23.7266 260.537 27.3203 258.491 30.0703L263.6 36H255.912L254.155 33.9844C251.639 35.6406 248.748 36.4688 245.483 36.4688C242.108 36.4688 239.405 35.5859 237.373 33.8203C235.342 32.0391 234.327 29.7031 234.327 26.8125ZM245.811 31.0312C247.436 31.0312 248.975 30.5781 250.428 29.6719L243.702 21.8906L243.209 22.2422C241.819 23.4297 241.123 24.8281 241.123 26.4375C241.123 27.7969 241.553 28.9062 242.412 29.7656C243.287 30.6094 244.42 31.0312 245.811 31.0312ZM243.327 10.2891C243.327 11.4609 244.014 12.9375 245.389 14.7188L247.194 13.5234C248.116 12.9297 248.748 12.3516 249.092 11.7891C249.452 11.2266 249.631 10.5547 249.631 9.77344C249.631 8.99219 249.342 8.3125 248.764 7.73438C248.186 7.15625 247.444 6.86719 246.537 6.86719C245.569 6.86719 244.787 7.17969 244.194 7.80469C243.616 8.42969 243.327 9.25781 243.327 10.2891Z" fill="black" fill-opacity="0.66"/>
<path d="M74.825 92H70.3016L53.1219 65.7031V92H48.5984V57.875H53.1219L70.3484 84.2891V57.875H74.825V92ZM81.7091 79.0859C81.7091 76.6016 82.1934 74.3672 83.1622 72.3828C84.1466 70.3984 85.5059 68.8672 87.2403 67.7891C88.9903 66.7109 90.9825 66.1719 93.2169 66.1719C96.67 66.1719 99.4591 67.3672 101.584 69.7578C103.725 72.1484 104.795 75.3281 104.795 79.2969V79.6016C104.795 82.0703 104.318 84.2891 103.365 86.2578C102.428 88.2109 101.076 89.7344 99.3106 90.8281C97.5606 91.9219 95.545 92.4688 93.2637 92.4688C89.8262 92.4688 87.0372 91.2734 84.8966 88.8828C82.7716 86.4922 81.7091 83.3281 81.7091 79.3906V79.0859ZM86.0684 79.6016C86.0684 82.4141 86.7169 84.6719 88.0137 86.375C89.3262 88.0781 91.0762 88.9297 93.2637 88.9297C95.4669 88.9297 97.2169 88.0703 98.5137 86.3516C99.8106 84.6172 100.459 82.1953 100.459 79.0859C100.459 76.3047 99.795 74.0547 98.4669 72.3359C97.1544 70.6016 95.4044 69.7344 93.2169 69.7344C91.0762 69.7344 89.3497 70.5859 88.0372 72.2891C86.7247 73.9922 86.0684 76.4297 86.0684 79.6016ZM109.898 79.1094C109.898 75.2188 110.82 72.0938 112.663 69.7344C114.507 67.3594 116.921 66.1719 119.906 66.1719C122.874 66.1719 125.226 67.1875 126.96 69.2188V56H131.296V92H127.312L127.101 89.2812C125.367 91.4062 122.952 92.4688 119.859 92.4688C116.921 92.4688 114.523 91.2656 112.663 88.8594C110.82 86.4531 109.898 83.3125 109.898 79.4375V79.1094ZM114.234 79.6016C114.234 82.4766 114.827 84.7266 116.015 86.3516C117.202 87.9766 118.843 88.7891 120.937 88.7891C123.687 88.7891 125.695 87.5547 126.96 85.0859V73.4375C125.663 71.0469 123.671 69.8516 120.984 69.8516C118.859 69.8516 117.202 70.6719 116.015 72.3125C114.827 73.9531 114.234 76.3828 114.234 79.6016ZM149.29 92.4688C145.852 92.4688 143.055 91.3438 140.899 89.0938C138.743 86.8281 137.665 83.8047 137.665 80.0234V79.2266C137.665 76.7109 138.141 74.4688 139.094 72.5C140.063 70.5156 141.407 68.9688 143.126 67.8594C144.86 66.7344 146.735 66.1719 148.751 66.1719C152.047 66.1719 154.61 67.2578 156.438 69.4297C158.266 71.6016 159.18 74.7109 159.18 78.7578V80.5625H142.001C142.063 83.0625 142.79 85.0859 144.18 86.6328C145.587 88.1641 147.368 88.9297 149.524 88.9297C151.055 88.9297 152.352 88.6172 153.415 87.9922C154.477 87.3672 155.407 86.5391 156.204 85.5078L158.852 87.5703C156.727 90.8359 153.54 92.4688 149.29 92.4688ZM148.751 69.7344C147.001 69.7344 145.532 70.375 144.344 71.6562C143.157 72.9219 142.422 74.7031 142.141 77H154.844V76.6719C154.719 74.4688 154.126 72.7656 153.063 71.5625C152.001 70.3438 150.563 69.7344 148.751 69.7344ZM179.916 57.875H184.439V82.0391C184.439 85.3047 183.455 87.8594 181.486 89.7031C179.533 91.5469 176.924 92.4688 173.658 92.4688C170.267 92.4688 167.627 91.6016 165.736 89.8672C163.846 88.1328 162.9 85.7031 162.9 82.5781H167.4C167.4 84.5312 167.932 86.0547 168.994 87.1484C170.072 88.2422 171.627 88.7891 173.658 88.7891C175.517 88.7891 177.017 88.2031 178.158 87.0312C179.314 85.8594 179.9 84.2188 179.916 82.1094V57.875ZM202.878 76.7891C199.019 75.6797 196.206 74.3203 194.441 72.7109C192.691 71.0859 191.816 69.0859 191.816 66.7109C191.816 64.0234 192.886 61.8047 195.027 60.0547C197.183 58.2891 199.98 57.4062 203.417 57.4062C205.761 57.4062 207.847 57.8594 209.675 58.7656C211.519 59.6719 212.941 60.9219 213.941 62.5156C214.956 64.1094 215.464 65.8516 215.464 67.7422H210.941C210.941 65.6797 210.284 64.0625 208.972 62.8906C207.659 61.7031 205.808 61.1094 203.417 61.1094C201.198 61.1094 199.464 61.6016 198.214 62.5859C196.98 63.5547 196.362 64.9062 196.362 66.6406C196.362 68.0312 196.948 69.2109 198.12 70.1797C199.308 71.1328 201.316 72.0078 204.144 72.8047C206.987 73.6016 209.206 74.4844 210.8 75.4531C212.409 76.4062 213.597 77.5234 214.362 78.8047C215.144 80.0859 215.534 81.5938 215.534 83.3281C215.534 86.0938 214.456 88.3125 212.3 89.9844C210.144 91.6406 207.261 92.4688 203.652 92.4688C201.308 92.4688 199.12 92.0234 197.089 91.1328C195.058 90.2266 193.487 88.9922 192.378 87.4297C191.284 85.8672 190.737 84.0938 190.737 82.1094H195.261C195.261 84.1719 196.019 85.8047 197.534 87.0078C199.066 88.1953 201.105 88.7891 203.652 88.7891C206.027 88.7891 207.847 88.3047 209.112 87.3359C210.378 86.3672 211.011 85.0469 211.011 83.375C211.011 81.7031 210.425 80.4141 209.253 79.5078C208.081 78.5859 205.956 77.6797 202.878 76.7891Z" fill="#3E863D"/>
</svg>
